<?xml version="1.0" encoding="UTF-8" standalone="no"?>
<svg
   viewBox="0 0 300 148"
   version="1.1"
   id="svg12"
   xmlns="http://www.w3.org/2000/svg"
   xmlns:svg="http://www.w3.org/2000/svg">
  <defs
     id="defs12" />
  <g
     fill="none"
     stroke-width="2"
     id="g6">
    <path
       stroke="#882b2b"
       d="m148.72 51.33-14.25-.04q-.89 0-.4.75l2.79 4.26a.99.98-16.2 0 0 .83.45h14.83a1.11 1.1-15.3 0 1 .95.54l2.66 4.43a1.1 1.08 74.2 0 0 .93.53h5.64q.76 0 .35-.64-8.65-13.68-17.45-27.3c-3.02-4.67-6.3-4.26-9.23.3q-8.71 13.56-17.36 27.24-.31.51.28.5l6-.14a.94.94 0 0 0 .78-.44l14.65-23.3a.46.46 0 0 1 .78 0l7.56 12.25q.38.61-.34.61m-78.75 9.51c14.94-6.74 9.77-29.62-7.22-29.59-7.25.01-17.18-.96-23.15 1.36-12.46 4.84-12.81 22.75-.45 28.27 5.24 2.34 25.58 2.32 30.82-.04"
       vector-effect="non-scaling-stroke"
       id="path1" />
    <path
       stroke="#882b2b"
       d="M88.5 36.81q9.13-.13 18.27-.03c5.7.06 8.05 6.72 3.55 9.18-3.31 1.82-14.36.76-18.69.98q-.6.03-.15.42l16.73 14.62a1.36 1.3 64.6 0 0 .87.33l7.4.03q.91 0 .21-.59l-10.73-8.97q-.76-.64.23-.57c12.21.94 17.19-14.5 6.53-19.62q-2.89-1.39-8.69-1.38-10.69.02-21.53.13a.51.51 0 0 0-.5.51v29.9a.5.5 0 0 0 .5.5l4.75.01a.75.75 0 0 0 .75-.75v-24.2a.5.5 0 0 1 .5-.5m88.62 19.93c-9.25.02-14.15-9.53-8.18-16.54 4.34-5.08 14.44-3.52 24.26-3.42a1.01 1 16.4 0 0 .87-.47l2.87-4.45q.37-.57-.32-.57c-7.65-.04-19.83-1.37-26.52 1.31-12.63 5.05-12.8 22.69-.32 28.36 5.75 2.61 17.37 1.29 23.88 1.36a1.03 1.03 0 0 0 .88-.47l2.92-4.45q.4-.61-.34-.62-10.05-.05-20-.04m29.38-.49V31.88a.63.63 0 0 0-.63-.63h-4.75a.63.62 90 0 0-.62.63l.01 28.31q0 2.05 2.05 2.05l27.58.01a.99.98 16.2 0 0 .83-.45l2.81-4.36q.45-.69-.38-.69H207a.5.5 0 0 1-.5-.5m33.3-6.75h24.16a1.02 1.02 0 0 0 .86-.47l2.64-4.16q.39-.62-.34-.62h-27.4a.55.55 0 0 1-.51-.76c4.03-9.58 17.76-6.76 26.29-6.72a1.07 1.05 16.2 0 0 .89-.48l2.82-4.39q.4-.61-.33-.62-9.68-.04-19.39.14-11.18.21-15.06 8.7c-3.67 8.03-.48 17.27 7.76 20.79 6.03 2.58 17.07 1.34 23.95 1.34a1 .98 15.9 0 0 .84-.46l2.77-4.37q.4-.64-.35-.64-9.48-.01-18.8-.07c-5.54-.03-9.48-1.35-11.16-6.71a.38.38 0 0 1 .36-.5m39.29-14.83a3.57 3.57 0 0 0-3.57-3.57 3.57 3.57 0 0 0-3.57 3.57 3.57 3.57 0 0 0 3.57 3.57 3.57 3.57 0 0 0 3.57-3.57"
       vector-effect="non-scaling-stroke"
       id="path2" />
    <path
       stroke="#585a5c"
       d="M269.52 78.4a.65.65 0 0 0-.65-.65H31.05a.65.65 0 0 0-.65.65v.94a.65.65 0 0 0 .65.65h237.82a.65.65 0 0 0 .65-.65v-.94"
       vector-effect="non-scaling-stroke"
       id="path3" />
    <path
       stroke="#959594"
       d="M232.25 113.75q-4.81.12-5-3.52a.51.5-1.2 0 0-.51-.48h-3.69a.48.48 0 0 0-.48.48c-.02 11.8 22.33 6.54 16.49-2.74-1.76-2.78-6.43-3.49-9.58-4.27q-1.92-.47-1.48-2.39c.81-3.6 6.19-3.56 6.78.12a.67.66 84.7 0 0 .68.57l3.2-.09a.66.65 86 0 0 .63-.73c-.88-7.64-12.56-7.32-15.46-1.75-3.78 7.24 6.27 8.3 10.05 10.05a1.62 1.57-.8 0 1 .75.71q.32.6.34 1.17.07 2.8-2.72 2.87M44.38 97.04q-1.78-1.58-4.16-1.64l-9.31-.21a.65.64-89.1 0 0-.66.65v19.92a.63.63 0 0 0 .59.63c6.99.38 15.34 1.33 17.28-7.56q1.54-7.1-3.74-11.79M76.53 112a.3.3 0 0 1 .29.2l1.37 4.1a.3.3 0 0 0 .29.2h4.04a.3.3 0 0 0 .28-.4l-7.15-20.65a.3.3 0 0 0-.28-.2h-5.02a.3.3 0 0 0-.28.2l-7.49 20.66a.3.3 0 0 0 .28.4l3.84-.01a.3.3 0 0 0 .28-.2l1.44-4.1a.3.3 0 0 1 .28-.2h7.83m23.28-13.25a.44.44 0 0 1 .44.44v16.87a.44.44 0 0 0 .44.44h3.62a.44.44 0 0 0 .44-.44V99.19a.44.44 0 0 1 .44-.44h5.62a.44.44 0 0 0 .44-.44v-2.62a.44.44 0 0 0-.44-.44H94.44a.44.44 0 0 0-.44.44l-.01 2.61a.44.44 0 0 0 .44.44l5.38.01m36.1-3.23a.4.4 0 0 0-.37-.27h-4.91a.4.4 0 0 0-.38.26l-7.4 20.45a.4.4 0 0 0 .38.54h3.61a.4.4 0 0 0 .38-.26l1.42-3.87a.4.4 0 0 1 .36-.26l7.61-.13a.4.4 0 0 1 .38.27l1.47 3.99a.4.4 0 0 0 .38.26h3.78a.4.4 0 0 0 .38-.53l-7.09-20.45m34.62 10.16q-.74-.28-.01-.58c3.39-1.4 4.12-5.56 1.52-8.06-2.57-2.47-10.42-2.03-13.64-1.64a.49.48-3.3 0 0-.43.48l.02 19.96a.55.55 0 0 0 .52.55c5.24.29 11.25.9 14.3-1.87 3.34-3.03 1.69-7.37-2.28-8.84m31.9 6.37a.35.35 0 0 1 .34.24l1.21 3.96a.35.35 0 0 0 .34.25l4.04.01a.35.35 0 0 0 .33-.47l-7.13-20.55a.35.35 0 0 0-.33-.24h-4.99a.35.35 0 0 0-.33.23l-7.47 20.55a.35.35 0 0 0 .33.47h3.8a.35.35 0 0 0 .33-.24l1.37-4.05a.35.35 0 0 1 .33-.24l7.83.08m57.69.95a.37.37 0 0 1-.37-.37v-5.01a.37.37 0 0 1 .37-.37h8.38a.37.37 0 0 0 .37-.39l-.15-2.76a.37.37 0 0 0-.37-.35h-8.23a.37.37 0 0 1-.37-.37v-4.26a.37.37 0 0 1 .37-.37h9.01a.37.37 0 0 0 .37-.37v-2.76a.37.37 0 0 0-.37-.37h-13.51a.37.37 0 0 0-.37.37v20.51a.37.37 0 0 0 .37.37h13.76a.37.37 0 0 0 .37-.37v-2.76a.37.37 0 0 0-.37-.37h-9.26"
       vector-effect="non-scaling-stroke"
       id="path4" />
    <path
       stroke="#882b2b"
       d="M72.7 46.25a9.39 9.39 0 0 0-9.39-9.39H45.35a9.39 9.39 0 0 0-9.39 9.39v1.04a9.39 9.39 0 0 0 9.39 9.39h17.96a9.39 9.39 0 0 0 9.39-9.39v-1.04m203.52-10.58-1.69.26a.43.42-6.2 0 1-.49-.39l-.15-1.87q-.06-.74-.65-.29c-1.84 1.42 1.3 3.63 2.96 3.55q2-.11 1.95-2.1-.02-.97-.46-1.26a.38.38 0 0 0-.58.22l-.38 1.43a.63.63 0 0 1-.51.45"
       vector-effect="non-scaling-stroke"
       id="path5" />
    <path
       stroke="#959594"
       d="M35.48 112.84c10.77 2.24 10.84-15.95.01-13.93a.61.6-5.9 0 0-.49.59v12.76a.59.59 0 0 0 .48.58m37.01-12.59-2.63 7.63a.47.47 0 0 0 .44.62h4.63a.5.5 0 0 0 .48-.65l-2.43-7.59q-.24-.74-.49-.01m60.26-.13-2.63 7.77a.46.46 0 0 0 .44.61h4.73a.39.38 80.6 0 0 .36-.51l-2.5-7.87q-.19-.62-.4 0m34.61-1.05-4.15-.41a.65.64 2.8 0 0-.71.64v3.68a.71.71 0 0 0 .61.7c2.41.38 5.67.69 5.88-2.68a1.82 1.81-85.3 0 0-1.63-1.93m.61 8.5-4.9-.12a.55.55 0 0 0-.57.55v4.3a.77.76 88.3 0 0 .81.77l4.8-.29a1.15 1.15 0 0 0 .95-.62q1.05-2.05-.1-4a1.19 1.18-14.1 0 0-.99-.59m27.69.49a.31.31 0 0 0 .29.41l5.09.06a.31.31 0 0 0 .3-.4l-2.45-7.71a.31.31 0 0 0-.59-.01l-2.64 7.65"
       vector-effect="non-scaling-stroke"
       id="path6" />
  </g>
  <path
     fill="#2b2a29"
     d="M0 0h300v148H0V0Zm148.72 51.33-14.25-.04q-.89 0-.4.75l2.79 4.26a.99.98-16.2 0 0 .83.45h14.83a1.11 1.1-15.3 0 1 .95.54l2.66 4.43a1.1 1.08 74.2 0 0 .93.53h5.64q.76 0 .35-.64-8.65-13.68-17.45-27.3c-3.02-4.67-6.3-4.26-9.23.3q-8.71 13.56-17.36 27.24-.31.51.28.5l6-.14a.94.94 0 0 0 .78-.44l14.65-23.3a.46.46 0 0 1 .78 0l7.56 12.25q.38.61-.34.61Zm-78.75 9.51c14.94-6.74 9.77-29.62-7.22-29.59-7.25.01-17.18-.96-23.15 1.36-12.46 4.84-12.81 22.75-.45 28.27 5.24 2.34 25.58 2.32 30.82-.04ZM88.5 36.81q9.13-.13 18.27-.03c5.7.06 8.05 6.72 3.55 9.18-3.31 1.82-14.36.76-18.69.98q-.6.03-.15.42l16.73 14.62a1.36 1.3 64.6 0 0 .87.33l7.4.03q.91 0 .21-.59l-10.73-8.97q-.76-.64.23-.57c12.21.94 17.19-14.5 6.53-19.62q-2.89-1.39-8.69-1.38-10.69.02-21.53.13a.51.51 0 0 0-.5.51v29.9a.5.5 0 0 0 .5.5l4.75.01a.75.75 0 0 0 .75-.75v-24.2a.5.5 0 0 1 .5-.5Zm88.62 19.93c-9.25.02-14.15-9.53-8.18-16.54 4.34-5.08 14.44-3.52 24.26-3.42a1.01 1 16.4 0 0 .87-.47l2.87-4.45q.37-.57-.32-.57c-7.65-.04-19.83-1.37-26.52 1.31-12.63 5.05-12.8 22.69-.32 28.36 5.75 2.61 17.37 1.29 23.88 1.36a1.03 1.03 0 0 0 .88-.47l2.92-4.45q.4-.61-.34-.62-10.05-.05-20-.04Zm29.38-.49V31.88a.63.63 0 0 0-.63-.63h-4.75a.63.62 90 0 0-.62.63l.01 28.31q0 2.05 2.05 2.05l27.58.01a.99.98 16.2 0 0 .83-.45l2.81-4.36q.45-.69-.38-.69H207a.5.5 0 0 1-.5-.5Zm33.3-6.75h24.16a1.02 1.02 0 0 0 .86-.47l2.64-4.16q.39-.62-.34-.62h-27.4a.55.55 0 0 1-.51-.76c4.03-9.58 17.76-6.76 26.29-6.72a1.07 1.05 16.2 0 0 .89-.48l2.82-4.39q.4-.61-.33-.62-9.68-.04-19.39.14-11.18.21-15.06 8.7c-3.67 8.03-.48 17.27 7.76 20.79 6.03 2.58 17.07 1.34 23.95 1.34a1 .98 15.9 0 0 .84-.46l2.77-4.37q.4-.64-.35-.64-9.48-.01-18.8-.07c-5.54-.03-9.48-1.35-11.16-6.71a.38.38 0 0 1 .36-.5Zm39.29-14.83a3.57 3.57 0 0 0-3.57-3.57 3.57 3.57 0 0 0-3.57 3.57 3.57 3.57 0 0 0 3.57 3.57 3.57 3.57 0 0 0 3.57-3.57Zm-9.57 43.73a.65.65 0 0 0-.65-.65H31.05a.65.65 0 0 0-.65.65v.94a.65.65 0 0 0 .65.65h237.82a.65.65 0 0 0 .65-.65v-.94Zm-37.27 35.35q-4.81.12-5-3.52a.51.5-1.2 0 0-.51-.48h-3.69a.48.48 0 0 0-.48.48c-.02 11.8 22.33 6.54 16.49-2.74-1.76-2.78-6.43-3.49-9.58-4.27q-1.92-.47-1.48-2.39c.81-3.6 6.19-3.56 6.78.12a.67.66 84.7 0 0 .68.57l3.2-.09a.66.65 86 0 0 .63-.73c-.88-7.64-12.56-7.32-15.46-1.75-3.78 7.24 6.27 8.3 10.05 10.05a1.62 1.57-.8 0 1 .75.71q.32.6.34 1.17.07 2.8-2.72 2.87ZM44.38 97.04q-1.78-1.58-4.16-1.64l-9.31-.21a.65.64-89.1 0 0-.66.65v19.92a.63.63 0 0 0 .59.63c6.99.38 15.34 1.33 17.28-7.56q1.54-7.1-3.74-11.79ZM76.53 112a.3.3 0 0 1 .29.2l1.37 4.1a.3.3 0 0 0 .29.2h4.04a.3.3 0 0 0 .28-.4l-7.15-20.65a.3.3 0 0 0-.28-.2h-5.02a.3.3 0 0 0-.28.2l-7.49 20.66a.3.3 0 0 0 .28.4l3.84-.01a.3.3 0 0 0 .28-.2l1.44-4.1a.3.3 0 0 1 .28-.2h7.83Zm23.28-13.25a.44.44 0 0 1 .44.44v16.87a.44.44 0 0 0 .44.44h3.62a.44.44 0 0 0 .44-.44V99.19a.44.44 0 0 1 .44-.44h5.62a.44.44 0 0 0 .44-.44v-2.62a.44.44 0 0 0-.44-.44H94.44a.44.44 0 0 0-.44.44l-.01 2.61a.44.44 0 0 0 .44.44l5.38.01Zm36.1-3.23a.4.4 0 0 0-.37-.27h-4.91a.4.4 0 0 0-.38.26l-7.4 20.45a.4.4 0 0 0 .38.54h3.61a.4.4 0 0 0 .38-.26l1.42-3.87a.4.4 0 0 1 .36-.26l7.61-.13a.4.4 0 0 1 .38.27l1.47 3.99a.4.4 0 0 0 .38.26h3.78a.4.4 0 0 0 .38-.53l-7.09-20.45Zm34.62 10.16q-.74-.28-.01-.58c3.39-1.4 4.12-5.56 1.52-8.06-2.57-2.47-10.42-2.03-13.64-1.64a.49.48-3.3 0 0-.43.48l.02 19.96a.55.55 0 0 0 .52.55c5.24.29 11.25.9 14.3-1.87 3.34-3.03 1.69-7.37-2.28-8.84Zm31.9 6.37a.35.35 0 0 1 .34.24l1.21 3.96a.35.35 0 0 0 .34.25l4.04.01a.35.35 0 0 0 .33-.47l-7.13-20.55a.35.35 0 0 0-.33-.24h-4.99a.35.35 0 0 0-.33.23l-7.47 20.55a.35.35 0 0 0 .33.47h3.8a.35.35 0 0 0 .33-.24l1.37-4.05a.35.35 0 0 1 .33-.24l7.83.08Zm57.69.95a.37.37 0 0 1-.37-.37v-5.01a.37.37 0 0 1 .37-.37h8.38a.37.37 0 0 0 .37-.39l-.15-2.76a.37.37 0 0 0-.37-.35h-8.23a.37.37 0 0 1-.37-.37v-4.26a.37.37 0 0 1 .37-.37h9.01a.37.37 0 0 0 .37-.37v-2.76a.37.37 0 0 0-.37-.37h-13.51a.37.37 0 0 0-.37.37v20.51a.37.37 0 0 0 .37.37h13.76a.37.37 0 0 0 .37-.37v-2.76a.37.37 0 0 0-.37-.37h-9.26Z"
     id="path7" />
  <path
     fill="#e52c2d"
     d="m149.06 50.72-7.56-12.25a.46.46 0 0 0-.78 0l-14.65 23.3a.94.94 0 0 1-.78.44l-6 .14q-.59.01-.28-.5 8.65-13.68 17.36-27.24c2.93-4.56 6.21-4.97 9.23-.3q8.8 13.62 17.45 27.3.41.64-.35.64h-5.64a1.1 1.08 74.2 0 1-.93-.53l-2.66-4.43a1.11 1.1-15.3 0 0-.95-.54h-14.83a.99.98-16.2 0 1-.83-.45l-2.79-4.26q-.49-.75.4-.75l14.25.04q.72 0 .34-.61ZM62.75 31.25c16.99-.03 22.16 22.85 7.22 29.59-5.24 2.36-25.58 2.38-30.82.04-12.36-5.52-12.01-23.43.45-28.27 5.97-2.32 15.9-1.35 23.15-1.36Zm9.95 15a9.39 9.39 0 0 0-9.39-9.39H45.35a9.39 9.39 0 0 0-9.39 9.39v1.04a9.39 9.39 0 0 0 9.39 9.39h17.96a9.39 9.39 0 0 0 9.39-9.39v-1.04Z"
     id="path8" />
  <path
     fill="#e52c2d"
     d="M88 37.31v24.2a.75.75 0 0 1-.75.75l-4.75-.01a.5.5 0 0 1-.5-.5v-29.9a.51.51 0 0 1 .5-.51q10.84-.11 21.53-.13 5.8-.01 8.69 1.38c10.66 5.12 5.68 20.56-6.53 19.62q-.99-.07-.23.57l10.73 8.97q.7.59-.21.59l-7.4-.03a1.36 1.3 64.6 0 1-.87-.33L91.48 47.36q-.45-.39.15-.42c4.33-.22 15.38.84 18.69-.98 4.5-2.46 2.15-9.12-3.55-9.18q-9.14-.1-18.27.03a.5.5 0 0 0-.5.5Zm80.94 2.89c-5.97 7.01-1.07 16.56 8.18 16.54q9.95-.01 20 .04.74.01.34.62l-2.92 4.45a1.03 1.03 0 0 1-.88.47c-6.51-.07-18.13 1.25-23.88-1.36-12.48-5.67-12.31-23.31.32-28.36 6.69-2.68 18.87-1.35 26.52-1.31q.69 0 .32.57l-2.87 4.45a1.01 1 16.4 0 1-.87.47c-9.82-.1-19.92-1.66-24.26 3.42ZM207 56.75h26.4q.83 0 .38.69l-2.81 4.36a.99.98 16.2 0 1-.83.45l-27.58-.01q-2.05 0-2.05-2.05l-.01-28.31a.63.62-90 0 1 .62-.63h4.75a.63.63 0 0 1 .63.63v24.37a.5.5 0 0 0 .5.5ZM239.44 50c1.68 5.36 5.62 6.68 11.16 6.71q9.32.06 18.8.07.75 0 .35.64l-2.77 4.37a1 .98 15.9 0 1-.84.46c-6.88 0-17.92 1.24-23.95-1.34-8.24-3.52-11.43-12.76-7.76-20.79q3.88-8.49 15.06-8.7 9.71-.18 19.39-.14.73.01.33.62l-2.82 4.39a1.07 1.05 16.2 0 1-.89.48c-8.53-.04-22.26-2.86-26.29 6.72a.55.55 0 0 0 .51.76h27.4q.73 0 .34.62l-2.64 4.16a1.02 1.02 0 0 1-.86.47H239.8a.38.38 0 0 0-.36.5Zm39.65-15.33a3.57 3.57 0 0 1-3.57 3.57 3.57 3.57 0 0 1-3.57-3.57 3.57 3.57 0 0 1 3.57-3.57 3.57 3.57 0 0 1 3.57 3.57Zm-2.87 1-1.69.26a.43.42-6.2 0 1-.49-.39l-.15-1.87q-.06-.74-.65-.29c-1.84 1.42 1.3 3.63 2.96 3.55q2-.11 1.95-2.1-.02-.97-.46-1.26a.38.38 0 0 0-.58.22l-.38 1.43a.63.63 0 0 1-.51.45Z"
     id="path9" />
  <path
     fill="#2b2a29"
     d="m276.73 35.22.38-1.43a.38.38 0 0 1 .58-.22q.44.29.46 1.26.05 1.99-1.95 2.1c-1.66.08-4.8-2.13-2.96-3.55q.59-.45.65.29l.15 1.87a.43.42-6.2 0 0 .49.39l1.69-.26a.63.63 0 0 0 .51-.45Z"
     id="path10" />
  <rect
     width="36.74"
     height="19.82"
     x="35.96"
     y="36.86"
     fill="#2b2a29"
     rx="9.39"
     id="rect10" />
  <rect
     width="239.12"
     height="2.24"
     x="30.4"
     y="77.75"
     fill="#848a8e"
     rx=".65"
     id="rect11" />
  <path
     fill="#fff"
     d="M232.25 113.75q2.79-.07 2.72-2.87-.02-.57-.34-1.17a1.62 1.57-.8 0 0-.75-.71c-3.78-1.75-13.83-2.81-10.05-10.05 2.9-5.57 14.58-5.89 15.46 1.75a.66.65 86 0 1-.63.73l-3.2.09a.67.66 84.7 0 1-.68-.57c-.59-3.68-5.97-3.72-6.78-.12q-.44 1.92 1.48 2.39c3.15.78 7.82 1.49 9.58 4.27 5.84 9.28-16.51 14.54-16.49 2.74a.48.48 0 0 1 .48-.48h3.69a.51.5-1.2 0 1 .51.48q.19 3.64 5 3.52ZM44.38 97.04q5.28 4.69 3.74 11.79c-1.94 8.89-10.29 7.94-17.28 7.56a.63.63 0 0 1-.59-.63V95.84a.65.64-89.1 0 1 .66-.65l9.31.21q2.38.06 4.16 1.64Zm-8.9 15.8c10.77 2.24 10.84-15.95.01-13.93a.61.6-5.9 0 0-.49.59v12.76a.59.59 0 0 0 .48.58Zm41.05-.84H68.7a.3.3 0 0 0-.28.2l-1.44 4.1a.3.3 0 0 1-.28.2l-3.84.01a.3.3 0 0 1-.28-.4l7.49-20.66a.3.3 0 0 1 .28-.2h5.02a.3.3 0 0 1 .28.2l7.15 20.65a.3.3 0 0 1-.28.4h-4.04a.3.3 0 0 1-.29-.2l-1.37-4.1a.3.3 0 0 0-.29-.2Zm-4.04-11.75-2.63 7.63a.47.47 0 0 0 .44.62h4.63a.5.5 0 0 0 .48-.65l-2.43-7.59q-.24-.74-.49-.01Zm27.32-1.5-5.38-.01a.44.44 0 0 1-.44-.44l.01-2.61a.44.44 0 0 1 .44-.44h16.37a.44.44 0 0 1 .44.44v2.62a.44.44 0 0 1-.44.44h-5.62a.44.44 0 0 0-.44.44v16.87a.44.44 0 0 1-.44.44h-3.62a.44.44 0 0 1-.44-.44V99.19a.44.44 0 0 0-.44-.44Zm36.1-3.23 7.09 20.45a.4.4 0 0 1-.38.53h-3.78a.4.4 0 0 1-.38-.26l-1.47-3.99a.4.4 0 0 0-.38-.27l-7.61.13a.4.4 0 0 0-.36.26l-1.42 3.87a.4.4 0 0 1-.38.26h-3.61a.4.4 0 0 1-.38-.54l7.4-20.45a.4.4 0 0 1 .38-.26h4.91a.4.4 0 0 1 .37.27Zm-3.16 4.6-2.63 7.77a.46.46 0 0 0 .44.61h4.73a.39.38 80.6 0 0 .36-.51l-2.5-7.87q-.19-.62-.4 0Zm37.78 5.56c3.97 1.47 5.62 5.81 2.28 8.84-3.05 2.77-9.06 2.16-14.3 1.87a.55.55 0 0 1-.52-.55l-.02-19.96a.49.48-3.3 0 1 .43-.48c3.22-.39 11.07-.83 13.64 1.64 2.6 2.5 1.87 6.66-1.52 8.06q-.73.3.01.58Zm-3.17-6.61-4.15-.41a.65.64 2.8 0 0-.71.64v3.68a.71.71 0 0 0 .61.7c2.41.38 5.67.69 5.88-2.68a1.82 1.81-85.3 0 0-1.63-1.93Zm.61 8.5-4.9-.12a.55.55 0 0 0-.57.55v4.3a.77.76 88.3 0 0 .81.77l4.8-.29a1.15 1.15 0 0 0 .95-.62q1.05-2.05-.1-4a1.19 1.18-14.1 0 0-.99-.59Zm34.46 4.48-7.83-.08a.35.35 0 0 0-.33.24l-1.37 4.05a.35.35 0 0 1-.33.24h-3.8a.35.35 0 0 1-.33-.47l7.47-20.55a.35.35 0 0 1 .33-.23h4.99a.35.35 0 0 1 .33.24l7.13 20.55a.35.35 0 0 1-.33.47l-4.04-.01a.35.35 0 0 1-.34-.25l-1.21-3.96a.35.35 0 0 0-.34-.24Zm-6.77-3.99a.31.31 0 0 0 .29.41l5.09.06a.31.31 0 0 0 .3-.4l-2.45-7.71a.31.31 0 0 0-.59-.01l-2.64 7.65Zm64.46 4.94h9.26a.37.37 0 0 1 .37.37v2.76a.37.37 0 0 1-.37.37h-13.76a.37.37 0 0 1-.37-.37V95.62a.37.37 0 0 1 .37-.37h13.51a.37.37 0 0 1 .37.37v2.76a.37.37 0 0 1-.37.37h-9.01a.37.37 0 0 0-.37.37v4.26a.37.37 0 0 0 .37.37h8.23a.37.37 0 0 1 .37.35l.15 2.76a.37.37 0 0 1-.37.39h-8.38a.37.37 0 0 0-.37.37v5.01a.37.37 0 0 0 .37.37Z"
     id="path11" />
  <path
     fill="#2b2a29"
     d="M35.49 98.91c10.83-2.02 10.76 16.17-.01 13.93a.59.59 0 0 1-.48-.58V99.5a.61.6-5.9 0 1 .49-.59Zm131.87.16a1.82 1.81-85.3 0 1 1.63 1.93c-.21 3.37-3.47 3.06-5.88 2.68a.71.71 0 0 1-.61-.7V99.3a.65.64 2.8 0 1 .71-.64l4.15.41Zm-94.87 1.18q.25-.73.49.01l2.43 7.59a.5.5 0 0 1-.48.65H70.3a.47.47 0 0 1-.44-.62l2.63-7.63Zm60.26-.13q.21-.62.4 0l2.5 7.87a.39.38 80.6 0 1-.36.51h-4.73a.46.46 0 0 1-.44-.61l2.63-7.77Zm62.91 7.94 2.64-7.65a.31.31 0 0 1 .59.01l2.45 7.71a.31.31 0 0 1-.3.4l-5.09-.06a.31.31 0 0 1-.29-.41Zm-26.7.1q1.15 1.95.1 4a1.15 1.15 0 0 1-.95.62l-4.8.29a.77.76 88.3 0 1-.81-.77V108a.55.55 0 0 1 .57-.55l4.9.12a1.19 1.18-14.1 0 1 .99.59Z"
     id="path12" />
</svg>
